<?xml version="1.0" encoding="UTF-8" standalone="no"?>
<svg
   viewBox="0 0 1440 688"
   width="100%"
   height="100%"
   preserveAspectRatio="xMidYMid slice"
   version="1.1"
   id="svg295"
   sodipodi:docname="bg copy.svg"
   inkscape:version="1.1.1 (c3084ef, 2021-09-22)"
   xmlns:inkscape="http://www.inkscape.org/namespaces/inkscape"
   xmlns:sodipodi="http://sodipodi.sourceforge.net/DTD/sodipodi-0.dtd"
   xmlns="http://www.w3.org/2000/svg"
   xmlns:svg="http://www.w3.org/2000/svg">
  <sodipodi:namedview
     id="namedview297"
     pagecolor="#ffffff"
     bordercolor="#666666"
     borderopacity="1.0"
     inkscape:pageshadow="2"
     inkscape:pageopacity="0.0"
     inkscape:pagecheckerboard="0"
     showgrid="false"
     inkscape:zoom="0.46970945"
     inkscape:cx="490.72889"
     inkscape:cy="202.25269"
     inkscape:window-width="1512"
     inkscape:window-height="916"
     inkscape:window-x="197"
     inkscape:window-y="1118"
     inkscape:window-maximized="0"
     inkscape:current-layer="svg295" />
  <defs
     id="defs11">
    <inkscape:path-effect
       effect="powerclip"
       id="path-effect422"
       is_visible="true"
       lpeversion="1"
       inverse="true"
       flatten="false"
       hide_clip="false"
       message="Use fill-rule evenodd on &lt;b&gt;fill and stroke&lt;/b&gt; dialog if no flatten result after convert clip to paths." />
    <clipPath
       id="__lottie_element_298">
      <rect
         width="1440"
         height="688"
         x="0"
         y="0"
         id="rect2" />
    </clipPath>
    <clipPath
       id="__lottie_element_300">
      <path
         d="M0,0 L1000,0 L1000,1000 L0,1000z"
         id="path5" />
    </clipPath>
    <clipPath
       id="__lottie_element_355">
      <path
         d="M0,0 L1440,0 L1440,688 L0,688z"
         id="path8" />
    </clipPath>
    <clipPath
       clipPathUnits="userSpaceOnUse"
       id="clipPath418">
      <circle
         style="display:none;opacity:0.5;fill:#ff0000;fill-opacity:0.461538;stroke-width:2.11887"
         id="circle420"
         cx="720"
         cy="344"
         r="292.5" />
      <path
         id="lpe_path-effect422"
         style="opacity:0.5;fill:#ff0000;fill-opacity:0.461538;stroke-width:2.11887"
         class="powerclip"
         d="M -383.59999,29.399899 H 1463 V 658.59999 H -383.59999 Z M 1012.5,344 A 292.5,292.5 0 0 0 720,51.5 292.5,292.5 0 0 0 427.5,344 292.5,292.5 0 0 0 720,636.5 292.5,292.5 0 0 0 1012.5,344 Z" />
    </clipPath>
  </defs>
  <g
     clip-path="url(#clipPath418)"
     id="g293"
     inkscape:path-effect="#path-effect422">
    <g
       clip-path="url(#__lottie_element_355)"
       style="display: block;"
       transform="matrix(0.8999999761581421,0,0,0.8999999761581421,162,34.399993896484375)"
       id="g187">
      <g
         style="display: block;"
         transform="matrix(1,0,0,1,1484.781005859375,547.9099731445312)"
         opacity="1"
         id="g17">
        <g
           opacity="1"
           transform="matrix(1,0,0,1,0,0)"
           id="g15">
          <path
             fill="rgb(0,0,0)"
             d="m 21.219999,-139.31 c 0,0 -7.999999,-0.78 -7.999999,-0.78 0,0 -34.439999,277.81 -34.439999,277.81 0,0 24.189999,2.37 24.189999,2.37 0,0 18.249999,-279.4 18.249999,-279.4 z"
             id="path13"
             inkscape:original-d="m 21.219999,-139.31 c 0,0 -7.999999,-0.78 -7.999999,-0.78 0,0 -34.439999,277.81 -34.439999,277.81 0,0 24.189999,2.37 24.189999,2.37 0,0 18.249999,-279.4 18.249999,-279.4 z" />
        </g>
      </g>
      <g
         style="display: block;"
         transform="matrix(1,0,0,1,1482.4239501953125,140.25999450683594)"
         opacity="1"
         id="g23">
        <g
           opacity="1"
           transform="matrix(1,0,0,1,0,0)"
           id="g21">
          <path
             fill="rgb(0,0,0)"
             d="m 16.055,139.92 c 0,0 8,-0.89 8,-0.89 0,0 -23.97,-278.95 -23.97,-278.95 0,0 -24.14,2.72 -24.14,2.72 0,0 40.11,277.12 40.11,277.12 z"
             id="path19"
             inkscape:original-d="m 16.055,139.92 c 0,0 8,-0.89 8,-0.89 0,0 -23.97,-278.95 -23.97,-278.95 0,0 -24.14,2.72 -24.14,2.72 0,0 40.11,277.12 40.11,277.12 z" />
        </g>
      </g>
      <g
         style="display: block;"
         transform="matrix(1,0,0,1,1535.5849609375,547.7249755859375)"
         opacity="1"
         id="g29">
        <g
           opacity="1"
           transform="matrix(1,0,0,1,0,0)"
           id="g27">
          <path
             fill="rgb(0,0,0)"
             d="m -16.075001,-139.91499 c 0,0 -8,0.89 -8,0.89 0,0 24.010001,278.93998 24.010001,278.93998 0,0 24.140001,-2.70999 24.140001,-2.70999 0,0 -40.150002,-277.11999 -40.150002,-277.11999 z"
             id="path25"
             inkscape:original-d="m -16.075001,-139.91499 c 0,0 -8,0.89 -8,0.89 0,0 24.010001,278.93998 24.010001,278.93998 0,0 24.140001,-2.70999 24.140001,-2.70999 0,0 -40.150002,-277.11999 -40.150002,-277.11999 z" />
        </g>
      </g>
      <g
         style="display: block;"
         transform="matrix(1,0,0,1,1440.9110107421875,148.52999877929688)"
         opacity="1"
         id="g35">
        <g
           opacity="1"
           transform="matrix(1,0,0,1,0,0)"
           id="g33">
          <path
             fill="rgb(0,0,0)"
             d="m 44.59,135.22 c 0,0 7.610001,-2.54001 7.610001,-2.54001 0,0 -81.400002,-267.89999 -81.400002,-267.89999 0,0 -23,7.69 -23,7.69 0,0 96.790001,262.75 96.790001,262.75 z"
             id="path31"
             inkscape:original-d="m 44.59,135.22 c 0,0 7.610001,-2.54001 7.610001,-2.54001 0,0 -81.400002,-267.89999 -81.400002,-267.89999 0,0 -23,7.69 -23,7.69 0,0 96.790001,262.75 96.790001,262.75 z" />
        </g>
      </g>
      <g
         style="display: block;"
         transform="matrix(1,0,0,1,1577.0860595703125,539.4650268554688)"
         opacity="1"
         id="g41">
        <g
           opacity="1"
           transform="matrix(1,0,0,1,0,0)"
           id="g39">
          <path
             fill="rgb(0,0,0)"
             d="m -44.595001,-135.215 c 0,0 -7.610001,2.53 -7.610001,2.53 0,0 81.360003,267.9 81.360003,267.9 0,0 23.050001,-7.68 23.050001,-7.68 0,0 -96.800003,-262.75 -96.800003,-262.75 z"
             id="path37"
             inkscape:original-d="m -44.595001,-135.215 c 0,0 -7.610001,2.53 -7.610001,2.53 0,0 81.360003,267.9 81.360003,267.9 0,0 23.050001,-7.68 23.050001,-7.68 0,0 -96.800003,-262.75 -96.800003,-262.75 z" />
        </g>
      </g>
      <g
         style="display: block;"
         transform="matrix(1,0,0,1,1402.3609619140625,165.39999389648438)"
         opacity="1"
         id="g47">
        <g
           opacity="1"
           transform="matrix(1,0,0,1,0,0)"
           id="g45">
          <path
             fill="rgb(0,0,0)"
             d="m 71.139999,124.6 c 0,0 6.919999,-4.11 6.919999,-4.11 0,0 -135.179997,-245.09 -135.179997,-245.09 0,0 -20.939999,12.32 -20.939999,12.32 0,0 149.199997,236.88 149.199997,236.88 z"
             id="path43"
             inkscape:original-d="m 71.139999,124.6 c 0,0 6.919999,-4.11 6.919999,-4.11 0,0 -135.179997,-245.09 -135.179997,-245.09 0,0 -20.939999,12.32 -20.939999,12.32 0,0 149.199997,236.88 149.199997,236.88 z" />
        </g>
      </g>
      <g
         style="display: block;"
         transform="matrix(1,0,0,1,1615.6400146484375,522.594970703125)"
         opacity="1"
         id="g53">
        <g
           opacity="1"
           transform="matrix(1,0,0,1,0,0)"
           id="g51">
          <path
             fill="rgb(0,0,0)"
             d="m -71.139999,-124.595 c 0,0 -6.919999,4.1 -6.919999,4.1 0,0 135.179997,245.09 135.179997,245.09 0,0 20.939999,-12.32 20.939999,-12.32 0,0 -149.199997,-236.87 -149.199997,-236.87 z"
             id="path49"
             inkscape:original-d="m -71.139999,-124.595 c 0,0 -6.919999,4.1 -6.919999,4.1 0,0 135.179997,245.09 135.179997,245.09 0,0 20.939999,-12.32 20.939999,-12.32 0,0 -149.199997,-236.87 -149.199997,-236.87 z" />
        </g>
      </g>
      <g
         style="display: block;"
         transform="matrix(1,0,0,1,1368.5,190.0050048828125)"
         opacity="1"
         id="g59">
        <g
           opacity="1"
           transform="matrix(1,0,0,1,0,0)"
           id="g57">
          <path
             fill="rgb(0,0,0)"
             d="m 94.57,108.515 c 0,0 5.93,-5.42 5.93,-5.42 0,0 -183.07,-211.61 -183.07,-211.61 0,0 -17.93,16.419999 -17.93,16.419999 0,0 195.07,200.610001 195.07,200.610001 z"
             id="path55"
             inkscape:original-d="m 94.57,108.515 c 0,0 5.93,-5.42 5.93,-5.42 0,0 -183.07,-211.61 -183.07,-211.61 0,0 -17.93,16.419999 -17.93,16.419999 0,0 195.07,200.610001 195.07,200.610001 z" />
        </g>
      </g>
      <g
         style="display: block;"
         transform="matrix(1,0,0,1,1649.5,497.9849853515625)"
         opacity="1"
         id="g65">
        <g
           opacity="1"
           transform="matrix(1,0,0,1,0,0)"
           id="g63">
          <path
             fill="rgb(0,0,0)"
             d="m -94.589996,-108.515 c 0,0 -5.910004,5.42 -5.910004,5.42 0,0 183.110001,211.61 183.110001,211.61 0,0 17.889999,-16.409997 17.889999,-16.409997 0,0 -195.089996,-200.620003 -195.089996,-200.620003 z"
             id="path61"
             inkscape:original-d="m -94.589996,-108.515 c 0,0 -5.910004,5.42 -5.910004,5.42 0,0 183.110001,211.61 183.110001,211.61 0,0 17.889999,-16.409997 17.889999,-16.409997 0,0 -195.089996,-200.620003 -195.089996,-200.620003 z" />
        </g>
      </g>
      <g
         style="display: block;"
         transform="matrix(1,0,0,1,1340.72998046875,221.3800048828125)"
         opacity="1"
         id="g71">
        <g
           opacity="1"
           transform="matrix(1,0,0,1,0,0)"
           id="g69">
          <path
             fill="rgb(0,0,0)"
             d="m 113.91,87.699997 c 0,0 4.66,-6.529999 4.66,-6.529999 0,0 -223.01,-168.869995 -223.01,-168.869995 0,0 -14.13,19.789993 -14.13,19.789993 0,0 232.48,155.610001 232.48,155.610001 z"
             id="path67"
             inkscape:original-d="m 113.91,87.699997 c 0,0 4.66,-6.529999 4.66,-6.529999 0,0 -223.01,-168.869995 -223.01,-168.869995 0,0 -14.13,19.789993 -14.13,19.789993 0,0 232.48,155.610001 232.48,155.610001 z" />
        </g>
      </g>
      <g
         style="display: block;"
         transform="matrix(1,0,0,1,1677.26904296875,466.6199951171875)"
         opacity="1"
         id="g77">
        <g
           opacity="1"
           transform="matrix(1,0,0,1,0,0)"
           id="g75">
          <path
             fill="rgb(0,0,0)"
             d="m -113.9,-87.699997 c 0,0 -4.67,6.539993 -4.67,6.539993 0,0 223.01,168.860001 223.01,168.860001 0,0 14.13,-19.779999 14.13,-19.779999 0,0 -232.47,-155.619995 -232.47,-155.619995 z"
             id="path73"
             inkscape:original-d="m -113.9,-87.699997 c 0,0 -4.67,6.539993 -4.67,6.539993 0,0 223.01,168.860001 223.01,168.860001 0,0 14.13,-19.779999 14.13,-19.779999 0,0 -232.47,-155.619995 -232.47,-155.619995 z" />
        </g>
      </g>
      <g
         style="display: block;"
         transform="matrix(1,0,0,1,1320.3399658203125,258.0799865722656)"
         opacity="1"
         id="g83">
        <g
           opacity="1"
           transform="matrix(1,0,0,1,0,0)"
           id="g81">
          <path
             fill="rgb(0,0,0)"
             d="m 128.24001,63.080002 c 0,0 3.19999,-7.360001 3.19999,-7.360001 0,0 -253.17,-118.800003 -253.17,-118.800003 0,0 -9.71,22.34 -9.71,22.34 0,0 259.68001,103.820004 259.68001,103.820004 z"
             id="path79"
             inkscape:original-d="m 128.24001,63.080002 c 0,0 3.19999,-7.360001 3.19999,-7.360001 0,0 -253.17,-118.800003 -253.17,-118.800003 0,0 -9.71,22.34 -9.71,22.34 0,0 259.68001,103.820004 259.68001,103.820004 z" />
        </g>
      </g>
      <g
         style="display: block;"
         transform="matrix(1,0,0,1,1697.6610107421875,429.92498779296875)"
         opacity="1"
         id="g89">
        <g
           opacity="1"
           transform="matrix(1,0,0,1,0,0)"
           id="g87">
          <path
             fill="rgb(0,0,0)"
             d="m -128.24001,-63.075001 c 0,0 -3.19999,7.360001 -3.19999,7.360001 0,0 253.16,118.790001 253.16,118.790001 0,0 9.72,-22.330002 9.72,-22.330002 0,0 -259.68001,-103.82 -259.68001,-103.82 z"
             id="path85"
             inkscape:original-d="m -128.24001,-63.075001 c 0,0 -3.19999,7.360001 -3.19999,7.360001 0,0 253.16,118.790001 253.16,118.790001 0,0 9.72,-22.330002 9.72,-22.330002 0,0 -259.68001,-103.82 -259.68001,-103.82 z" />
        </g>
      </g>
      <g
         style="display: block;"
         transform="matrix(1,0,0,1,1308.2060546875,298.5799865722656)"
         opacity="1"
         id="g95">
        <g
           opacity="1"
           transform="matrix(1,0,0,1,0,0)"
           id="g93">
          <path
             fill="rgb(0,0,0)"
             d="m 136.965,35.66 c 0,0 1.61,-7.869999 1.61,-7.869999 0,0 -272.28,-63.450001 -272.28,-63.450001 0,0 -4.87,23.84 -4.87,23.84 0,0 275.54,47.48 275.54,47.48 z"
             id="path91"
             inkscape:original-d="m 136.965,35.66 c 0,0 1.61,-7.869999 1.61,-7.869999 0,0 -272.28,-63.450001 -272.28,-63.450001 0,0 -4.87,23.84 -4.87,23.84 0,0 275.54,47.48 275.54,47.48 z" />
        </g>
      </g>
      <g
         style="display: block;"
         transform="matrix(1,0,0,1,1709.81005859375,389.42498779296875)"
         opacity="1"
         id="g101">
        <g
           opacity="1"
           transform="matrix(1,0,0,1,0,0)"
           id="g99">
          <path
             fill="rgb(0,0,0)"
             d="m -136.96001,-35.654999 c 0,0 -1.61,7.869999 -1.61,7.869999 0,0 272.27001,63.439999 272.27001,63.439999 0,0 4.87001,-23.829999 4.87001,-23.829999 0,0 -275.53002,-47.479999 -275.53002,-47.479999 z"
             id="path97"
             inkscape:original-d="m -136.96001,-35.654999 c 0,0 -1.61,7.869999 -1.61,7.869999 0,0 272.27001,63.439999 272.27001,63.439999 0,0 4.87001,-23.829999 4.87001,-23.829999 0,0 -275.53002,-47.479999 -275.53002,-47.479999 z" />
        </g>
      </g>
      <g
         style="display: block;"
         transform="matrix(1,0,0,1,1304.739990234375,346.510009765625)"
         opacity="1"
         id="g107">
        <g
           opacity="1"
           transform="matrix(1,0,0,1,0,0)"
           id="g105">
          <path
             fill="rgb(0,0,0)"
             d="m 139.74001,1.21 c 0,0 0,-8 0,-8 0,0 -279.48002,-5.38 -279.48002,-5.38 0,0 0.19001,24.34 0.19001,24.34 0,0 279.29001,-10.96 279.29001,-10.96 z"
             id="path103"
             inkscape:original-d="m 139.74001,1.21 c 0,0 0,-8 0,-8 0,0 -279.48002,-5.38 -279.48002,-5.38 0,0 0.19001,24.34 0.19001,24.34 0,0 279.29001,-10.96 279.29001,-10.96 z" />
        </g>
      </g>
      <g
         style="display: block;"
         transform="matrix(1,0,0,1,1713.23095703125,341.5249938964844)"
         opacity="1"
         id="g113">
        <g
           opacity="1"
           transform="matrix(1,0,0,1,0,0)"
           id="g111">
          <path
             fill="rgb(0,0,0)"
             d="m -139.77,-1.245 c 0,0 0.06,8.0000001 0.06,8.0000001 0,0 279.48001,5.4099999 279.48001,5.4099999 0,0 -0.19,-24.33 -0.19,-24.33 0,0 -279.35,10.92 -279.35,10.92 z"
             id="path109"
             inkscape:original-d="m -139.77,-1.245 c 0,0 0.06,8.0000001 0.06,8.0000001 0,0 279.48001,5.4099999 279.48001,5.4099999 0,0 -0.19,-24.33 -0.19,-24.33 0,0 -279.35,10.92 -279.35,10.92 z" />
        </g>
      </g>
      <g
         style="display: block;"
         transform="matrix(1,0,0,1,1308.6290283203125,391.6300048828125)"
         opacity="1"
         id="g119">
        <g
           opacity="1"
           transform="matrix(1,0,0,1,0,0)"
           id="g117">
          <path
             fill="rgb(0,0,0)"
             d="m 138.10001,-30.540001 c 0,0 -1.73001,-7.829998 -1.73001,-7.829998 0,0 -274.47001,52.939999 -274.47001,52.939999 0,0 5.24001,23.799999 5.24001,23.799999 0,0 270.96001,-68.91 270.96001,-68.91 z"
             id="path115"
             inkscape:original-d="m 138.10001,-30.540001 c 0,0 -1.73001,-7.829998 -1.73001,-7.829998 0,0 -274.47001,52.939999 -274.47001,52.939999 0,0 5.24001,23.799999 5.24001,23.799999 0,0 270.96001,-68.91 270.96001,-68.91 z" />
        </g>
      </g>
      <g
         style="display: block;"
         transform="matrix(1,0,0,1,1709.385009765625,296.4049987792969)"
         opacity="1"
         id="g125">
        <g
           opacity="1"
           transform="matrix(1,0,0,1,0,0)"
           id="g123">
          <path
             fill="rgb(0,0,0)"
             d="m -138.11501,30.514999 c 0,0 1.73002,7.840001 1.73002,7.840001 0,0 274.5,-52.94 274.5,-52.94 0,0 -5.23002,-23.77 -5.23002,-23.77 0,0 -271,68.869999 -271,68.869999 z"
             id="path121"
             inkscape:original-d="m -138.11501,30.514999 c 0,0 1.73002,7.840001 1.73002,7.840001 0,0 274.5,-52.94 274.5,-52.94 0,0 -5.23002,-23.77 -5.23002,-23.77 0,0 -271,68.869999 -271,68.869999 z" />
        </g>
      </g>
      <g
         style="display: block;"
         transform="matrix(1,0,0,1,1321.280029296875,431.9100036621094)"
         opacity="1"
         id="g131">
        <g
           opacity="1"
           transform="matrix(1,0,0,1,0,0)"
           id="g129">
          <path
             fill="rgb(0,0,0)"
             d="m 130.36,-58.23 c 0,0 -3.31,-7.320003 -3.31,-7.320003 0,0 -257.41,108.940002 -257.41,108.940002 0,0 10,22.160004 10,22.160004 0,0 250.72,-123.780003 250.72,-123.780003 z"
             id="path127"
             inkscape:original-d="m 130.36,-58.23 c 0,0 -3.31,-7.320003 -3.31,-7.320003 0,0 -257.41,108.940002 -257.41,108.940002 0,0 10,22.160004 10,22.160004 0,0 250.72,-123.780003 250.72,-123.780003 z" />
        </g>
      </g>
      <g
         style="display: block;"
         transform="matrix(1,0,0,1,1696.7239990234375,256.0899963378906)"
         opacity="1"
         id="g137">
        <g
           opacity="1"
           transform="matrix(1,0,0,1,0,0)"
           id="g135">
          <path
             fill="rgb(0,0,0)"
             d="m -130.36501,58.23 c 0,0 3.32001,7.320003 3.32001,7.320003 0,0 257.41001,-108.950005 257.41001,-108.950005 0,0 -10.00001,-22.150001 -10.00001,-22.150001 0,0 -250.73001,123.780003 -250.73001,123.780003 z"
             id="path133"
             inkscape:original-d="m -130.36501,58.23 c 0,0 3.32001,7.320003 3.32001,7.320003 0,0 257.41001,-108.950005 257.41001,-108.950005 0,0 -10.00001,-22.150001 -10.00001,-22.150001 0,0 -250.73001,123.780003 -250.73001,123.780003 z" />
        </g>
      </g>
      <g
         style="display: block;"
         transform="matrix(1,0,0,1,1342.074951171875,468.385009765625)"
         opacity="1"
         id="g143">
        <g
           opacity="1"
           transform="matrix(1,0,0,1,0,0)"
           id="g141">
          <path
             fill="rgb(0,0,0)"
             d="m 116.985,-83.415001 c 0,0 -4.77,-6.470001 -4.77,-6.470001 0,0 -229.2,160.190002 -229.2,160.190002 0,0 14.43,19.580002 14.43,19.580002 0,0 219.54,-173.300003 219.54,-173.300003 z"
             id="path139"
             inkscape:original-d="m 116.985,-83.415001 c 0,0 -4.77,-6.470001 -4.77,-6.470001 0,0 -229.2,160.190002 -229.2,160.190002 0,0 14.43,19.580002 14.43,19.580002 0,0 219.54,-173.300003 219.54,-173.300003 z" />
        </g>
      </g>
      <g
         style="display: block;"
         transform="matrix(1,0,0,1,1675.9239501953125,219.5850067138672)"
         opacity="1"
         id="g149">
        <g
           opacity="1"
           transform="matrix(1,0,0,1,0,0)"
           id="g147">
          <path
             fill="rgb(0,0,0)"
             d="m -116.985,83.415001 c 0,0 4.76,6.470001 4.76,6.470001 0,0 229.21,-160.190002 229.21,-160.190002 0,0 -14.43,-19.580002 -14.43,-19.580002 0,0 -219.54,173.300003 -219.54,173.300003 z"
             id="path145"
             inkscape:original-d="m -116.985,83.415001 c 0,0 4.76,6.470001 4.76,6.470001 0,0 229.21,-160.190002 229.21,-160.190002 0,0 -14.43,-19.580002 -14.43,-19.580002 0,0 -219.54,173.300003 -219.54,173.300003 z" />
        </g>
      </g>
      <g
         style="display: block;"
         transform="matrix(1,0,0,1,1370.199951171875,499.43499755859375)"
         opacity="1"
         id="g155">
        <g
           opacity="1"
           transform="matrix(1,0,0,1,0,0)"
           id="g153">
          <path
             fill="rgb(0,0,0)"
             d="m 98.459999,-104.955 c 0,0 -6,-5.33 -6,-5.33 0,0 -190.919998,204.420002 -190.919998,204.420002 0,0 18.18,16.149998 18.18,16.149998 0,0 178.739998,-215.24 178.739998,-215.24 z"
             id="path151"
             inkscape:original-d="m 98.459999,-104.955 c 0,0 -6,-5.33 -6,-5.33 0,0 -190.919998,204.420002 -190.919998,204.420002 0,0 18.18,16.149998 18.18,16.149998 0,0 178.739998,-215.24 178.739998,-215.24 z" />
        </g>
      </g>
      <g
         style="display: block;"
         transform="matrix(1,0,0,1,1647.800048828125,188.5399932861328)"
         opacity="1"
         id="g161">
        <g
           opacity="1"
           transform="matrix(1,0,0,1,0,0)"
           id="g159">
          <path
             fill="rgb(0,0,0)"
             d="m -98.459999,104.96 c 0,0 6,5.32 6,5.32 0,0 190.919998,-204.409997 190.919998,-204.409997 0,0 -18.18,-16.150003 -18.18,-16.150003 0,0 -178.739998,215.24 -178.739998,215.24 z"
             id="path157"
             inkscape:original-d="m -98.459999,104.96 c 0,0 6,5.32 6,5.32 0,0 190.919998,-204.409997 190.919998,-204.409997 0,0 -18.18,-16.150003 -18.18,-16.150003 0,0 -178.739998,215.24 -178.739998,215.24 z" />
        </g>
      </g>
      <g
         style="display: block;"
         transform="matrix(1,0,0,1,1404.4000244140625,523.6849975585938)"
         opacity="1"
         id="g167">
        <g
           opacity="1"
           transform="matrix(1,0,0,1,0,0)"
           id="g165">
          <path
             fill="rgb(0,0,0)"
             d="m 75.650002,-121.865 c 0,0 -7,-4 -7,-4 0,0 -144.300004,239.73 -144.300004,239.73 0,0 21.130002,12 21.130002,12 0,0 130.170002,-247.73 130.170002,-247.73 z"
             id="path163"
             inkscape:original-d="m 75.650002,-121.865 c 0,0 -7,-4 -7,-4 0,0 -144.300004,239.73 -144.300004,239.73 0,0 21.130002,12 21.130002,12 0,0 130.170002,-247.73 130.170002,-247.73 z" />
        </g>
      </g>
      <g
         style="display: block;"
         transform="matrix(1,0,0,1,1613.625,164.28500366210938)"
         opacity="1"
         id="g173">
        <g
           opacity="1"
           transform="matrix(1,0,0,1,0,0)"
           id="g171">
          <path
             fill="rgb(0,0,0)"
             d="m -75.625,121.865 c 0,0 7,4 7,4 0,0 144.25,-239.73 144.25,-239.73 0,0 -21.130001,-12 -21.130001,-12 0,0 -130.119999,247.73 -130.119999,247.73 z"
             id="path169"
             inkscape:original-d="m -75.625,121.865 c 0,0 7,4 7,4 0,0 144.25,-239.73 144.25,-239.73 0,0 -21.130001,-12 -21.130001,-12 0,0 -130.119999,247.73 -130.119999,247.73 z" />
        </g>
      </g>
      <g
         style="display: block;"
         transform="matrix(1,0,0,1,1443.1409912109375,540.0650024414062)"
         opacity="1"
         id="g179">
        <g
           opacity="1"
           transform="matrix(1,0,0,1,0,0)"
           id="g177">
          <path
             fill="rgb(0,0,0)"
             d="m 49.5,-133.505 c 0,0 -7.639999,-2.43 -7.639999,-2.43 0,0 -91.360001,264.52001 -91.360001,264.52001 0,0 23.16,7.34999 23.16,7.34999 0,0 75.84,-269.44 75.84,-269.44 z"
             id="path175"
             inkscape:original-d="m 49.5,-133.505 c 0,0 -7.639999,-2.43 -7.639999,-2.43 0,0 -91.360001,264.52001 -91.360001,264.52001 0,0 23.16,7.34999 23.16,7.34999 0,0 75.84,-269.44 75.84,-269.44 z" />
        </g>
      </g>
      <g
         style="display: block;"
         transform="matrix(1,0,0,1,1574.85400390625,147.93499755859375)"
         opacity="1"
         id="g185">
        <g
           opacity="1"
           transform="matrix(1,0,0,1,0,0)"
           id="g183">
          <path
             fill="rgb(0,0,0)"
             d="m -49.494999,133.505 c 0,0 7.639999,2.43 7.639999,2.43 0,0 91.349999,-264.52001 91.349999,-264.52001 0,0 -23.16,-7.34999 -23.16,-7.34999 0,0 -75.829998,269.44 -75.829998,269.44 z"
             id="path181"
             inkscape:original-d="m -49.494999,133.505 c 0,0 7.639999,2.43 7.639999,2.43 0,0 91.349999,-264.52001 91.349999,-264.52001 0,0 -23.16,-7.34999 -23.16,-7.34999 0,0 -75.829998,269.44 -75.829998,269.44 z" />
        </g>
      </g>
    </g>
    <g
       style="display: block;"
       transform="matrix(0.8999999761581421,0,0,0.8999999761581421,-69,344)"
       id="g193">
      <g
         opacity="1"
         transform="matrix(1,0,0,1,0,0)"
         id="g191">
        <path
           fill="rgb(0,0,0)"
           d="M 0,344 C 189.98599,344 344,189.98599 344,0 344,-189.98599 189.98599,-344 0,-344 c -189.98599,0 -344,154.01401 -344,344 0,189.98599 154.01401,344 344,344 z"
           id="path189"
           inkscape:original-d="M 0,344 C 189.98599,344 344,189.98599 344,0 344,-189.98599 189.98599,-344 0,-344 c -189.98599,0 -344,154.01401 -344,344 0,189.98599 154.01401,344 344,344 z" />
      </g>
    </g>
    <g
       clip-path="url(#__lottie_element_300)"
       style="display: block;"
       transform="matrix(0.8999999761581421,0,0,0.8999999761581421,270,-106)"
       opacity="1"
       id="g291">
      <g
         style="display: block;"
         transform="matrix(1.0000090599060059,0.000139627605676651,-0.000139627605676651,1.0000090599060059,527.6858520507812,703.470703125)"
         id="g199">
        <g
           opacity="1"
           transform="matrix(1,0,0,1,0,0)"
           id="g197">
          <path
             fill="rgb(0,0,0)"
             d="m -16.025,-139.735 c 0,0 -7.95,0.89 -7.95,0.89 0,0 23.89,278.58 23.89,278.58 0,0 24.06,-2.71001 24.06,-2.71001 0,0 -40,-276.75999 -40,-276.75999 z"
             id="path195"
             inkscape:original-d="m -16.025,-139.735 c 0,0 -7.95,0.89 -7.95,0.89 0,0 23.89,278.58 23.89,278.58 0,0 24.06,-2.71001 24.06,-2.71001 0,0 -40,-276.75999 -40,-276.75999 z" />
        </g>
      </g>
      <g
         style="display: block;"
         transform="matrix(1.0000090599060059,0.000139627605676651,-0.000139627605676651,1.0000090599060059,569.058349609375,695.21142578125)"
         id="g205">
        <g
           opacity="1"
           transform="matrix(1,0,0,1,0,0)"
           id="g203">
          <path
             fill="rgb(0,0,0)"
             d="m -44.435001,-135.03 c 0,0 -7.579998,2.53 -7.579998,2.53 0,0 81.029998,267.53 81.029998,267.53 0,0 23,-7.68 23,-7.68 0,0 -96.45,-262.38 -96.45,-262.38 z"
             id="path201"
             inkscape:original-d="m -44.435001,-135.03 c 0,0 -7.579998,2.53 -7.579998,2.53 0,0 81.029998,267.53 81.029998,267.53 0,0 23,-7.68 23,-7.68 0,0 -96.45,-262.38 -96.45,-262.38 z" />
        </g>
      </g>
      <g
         style="display: block;"
         transform="matrix(1.0000090599060059,0.000139627605676651,-0.000139627605676651,1.0000090599060059,607.47607421875,678.380615234375)"
         id="g211">
        <g
           opacity="1"
           transform="matrix(1,0,0,1,0,0)"
           id="g209">
          <path
             fill="rgb(0,0,0)"
             d="m -70.889999,-124.435 c 0,0 -6.89,4.07 -6.89,4.07 0,0 134.689999,244.8 134.689999,244.8 0,0 20.869999,-12.3 20.869999,-12.3 0,0 -148.669998,-236.57 -148.669998,-236.57 z"
             id="path207"
             inkscape:original-d="m -70.889999,-124.435 c 0,0 -6.89,4.07 -6.89,4.07 0,0 134.689999,244.8 134.689999,244.8 0,0 20.869999,-12.3 20.869999,-12.3 0,0 -148.669998,-236.57 -148.669998,-236.57 z" />
        </g>
      </g>
      <g
         style="display: block;"
         transform="matrix(1.0000090599060059,0.000139627605676651,-0.000139627605676651,1.0000090599060059,641.248779296875,653.8110961914062)"
         id="g217">
        <g
           opacity="1"
           transform="matrix(1,0,0,1,0,0)"
           id="g215">
          <path
             fill="rgb(0,0,0)"
             d="m -94.260002,-108.37 c 0,0 -5.889998,5.41 -5.889998,5.41 0,0 182.429999,211.33 182.429999,211.33 0,0 17.870001,-16.389997 17.870001,-16.389997 0,0 -194.410002,-200.350003 -194.410002,-200.350003 z"
             id="path213"
             inkscape:original-d="m -94.260002,-108.37 c 0,0 -5.889998,5.41 -5.889998,5.41 0,0 182.429999,211.33 182.429999,211.33 0,0 17.870001,-16.389997 17.870001,-16.389997 0,0 -194.410002,-200.350003 -194.410002,-200.350003 z" />
        </g>
      </g>
      <g
         style="display: block;"
         transform="matrix(1.0000090599060059,0.000139627605676651,-0.000139627605676651,1.0000090599060059,668.888427734375,622.4896850585938)"
         id="g223">
        <g
           opacity="1"
           transform="matrix(1,0,0,1,0,0)"
           id="g221">
          <path
             fill="rgb(0,0,0)"
             d="m -113.485,-87.584999 c 0,0 -4.66,6.529999 -4.66,6.529999 0,0 222.24,168.639999 222.24,168.639999 0,0 14.05,-19.75 14.05,-19.75 0,0 -231.63,-155.419998 -231.63,-155.419998 z"
             id="path219"
             inkscape:original-d="m -113.485,-87.584999 c 0,0 -4.66,6.529999 -4.66,6.529999 0,0 222.24,168.639999 222.24,168.639999 0,0 14.05,-19.75 14.05,-19.75 0,0 -231.63,-155.419998 -231.63,-155.419998 z" />
        </g>
      </g>
      <g
         style="display: block;"
         transform="matrix(1.0000091791152954,0.00013962762022856623,-0.00013962762022856623,1.0000091791152954,689.2037353515625,585.8272094726562)"
         id="g229">
        <g
           opacity="1"
           transform="matrix(1,0,0,1,0,0)"
           id="g227">
          <path
             fill="rgb(0,0,0)"
             d="m -127.765,-62.98 c 0,0 -3.2,7.349999 -3.2,7.349999 0,0 252.26,118.610001 252.26,118.610001 0,0 9.67,-22.270001 9.67,-22.270001 0,0 -258.73,-103.689999 -258.73,-103.689999 z"
             id="path225"
             inkscape:original-d="m -127.765,-62.98 c 0,0 -3.2,7.349999 -3.2,7.349999 0,0 252.26,118.610001 252.26,118.610001 0,0 9.67,-22.270001 9.67,-22.270001 0,0 -258.73,-103.689999 -258.73,-103.689999 z" />
        </g>
      </g>
      <g
         style="display: block;"
         transform="matrix(1.0000097751617432,0.0001396277075400576,-0.0001396277075400576,1.0000097751617432,701.3196411132812,545.4085693359375)"
         id="g235">
        <g
           opacity="1"
           transform="matrix(1,0,0,1,0,0)"
           id="g233">
          <path
             fill="rgb(0,0,0)"
             d="m -136.465,-35.619999 c 0,0 -1.61,7.859999 -1.61,7.859999 0,0 271.30001,63.379999 271.30001,63.379999 0,0 4.84999,-23.829999 4.84999,-23.829999 0,0 -274.54,-47.409999 -274.54,-47.409999 z"
             id="path231"
             inkscape:original-d="m -136.465,-35.619999 c 0,0 -1.61,7.859999 -1.61,7.859999 0,0 271.30001,63.379999 271.30001,63.379999 0,0 4.84999,-23.829999 4.84999,-23.829999 0,0 -274.54,-47.409999 -274.54,-47.409999 z" />
        </g>
      </g>
      <g
         style="display: block;"
         transform="matrix(1.000009536743164,0.00013962767843622714,-0.00013962767843622714,1.000009536743164,704.7373046875,497.53857421875)"
         id="g241">
        <g
           opacity="1"
           transform="matrix(1,0,0,1,0,0)"
           id="g239">
          <path
             fill="rgb(0,0,0)"
             d="m -139.265,-1.24 c 0,0 0.06,8.0000002 0.06,8.0000002 0,0 278.47,5.3899998 278.47,5.3899998 0,0 -0.19,-24.3 -0.19,-24.3 0,0 -278.34,10.91 -278.34,10.91 z"
             id="path237"
             inkscape:original-d="m -139.265,-1.24 c 0,0 0.06,8.0000002 0.06,8.0000002 0,0 278.47,5.3899998 278.47,5.3899998 0,0 -0.19,-24.3 -0.19,-24.3 0,0 -278.34,10.91 -278.34,10.91 z" />
        </g>
      </g>
      <g
         style="display: block;"
         transform="matrix(1.0000097751617432,0.0001396277075400576,-0.0001396277075400576,1.0000097751617432,700.9066162109375,452.5215759277344)"
         id="g247">
        <g
           opacity="1"
           transform="matrix(1,0,0,1,0,0)"
           id="g245">
          <path
             fill="rgb(0,0,0)"
             d="m -137.61,30.504999 c 0,0 1.71001,7.770003 1.71001,7.770003 0,0 273.50999,-52.820002 273.50999,-52.820002 0,0 -5.22,-23.730002 -5.22,-23.730002 0,0 -270,68.780001 -270,68.780001 z"
             id="path243"
             inkscape:original-d="m -137.61,30.504999 c 0,0 1.71001,7.770003 1.71001,7.770003 0,0 273.50999,-52.820002 273.50999,-52.820002 0,0 -5.22,-23.730002 -5.22,-23.730002 0,0 -270,68.780001 -270,68.780001 z" />
        </g>
      </g>
      <g
         style="display: block;"
         transform="matrix(1.0000090599060059,0.000139627605676651,-0.000139627605676651,1.0000090599060059,688.322998046875,412.2355041503906)"
         id="g253">
        <g
           opacity="1"
           transform="matrix(1,0,0,1,0,0)"
           id="g251">
          <path
             fill="rgb(0,0,0)"
             d="m -129.91,58.150002 c 0,0 3.3,7.309997 3.3,7.309997 0,0 256.52,-108.799999 256.52,-108.799999 0,0 -10,-22.119999 -10,-22.119999 0,0 -249.82,123.610001 -249.82,123.610001 z"
             id="path249"
             inkscape:original-d="m -129.91,58.150002 c 0,0 3.3,7.309997 3.3,7.309997 0,0 256.52,-108.799999 256.52,-108.799999 0,0 -10,-22.119999 -10,-22.119999 0,0 -249.82,123.610001 -249.82,123.610001 z" />
        </g>
      </g>
      <g
         style="display: block;"
         transform="matrix(1.0000090599060059,0.000139627605676651,-0.000139627605676651,1.0000090599060059,667.578857421875,375.7812805175781)"
         id="g259">
        <g
           opacity="1"
           transform="matrix(1,0,0,1,0,0)"
           id="g257">
          <path
             fill="rgb(0,0,0)"
             d="m -116.56,83.309998 c 0,0 4.75,6.450004 4.75,6.450004 0,0 228.37,-159.959999 228.37,-159.959999 0,0 -14.37,-19.560005 -14.37,-19.560005 0,0 -218.75,173.07 -218.75,173.07 z"
             id="path255"
             inkscape:original-d="m -116.56,83.309998 c 0,0 4.75,6.450004 4.75,6.450004 0,0 228.37,-159.959999 228.37,-159.959999 0,0 -14.37,-19.560005 -14.37,-19.560005 0,0 -218.75,173.07 -218.75,173.07 z" />
        </g>
      </g>
      <g
         style="display: block;"
         transform="matrix(1.0000041723251343,0.00013962692173663527,-0.00013962692173663527,1.0000041723251343,639.540283203125,344.75384521484375)"
         id="g265">
        <g
           opacity="1"
           transform="matrix(1,0,0,1,0,0)"
           id="g263">
          <path
             fill="rgb(0,0,0)"
             d="m -98.099998,104.845 c 0,0 6,5.31 6,5.31 0,0 190.199996,-204.190004 190.199996,-204.190004 0,0 -18.11,-16.119996 -18.11,-16.119996 0,0 -178.089996,215 -178.089996,215 z"
             id="path261"
             inkscape:original-d="m -98.099998,104.845 c 0,0 6,5.31 6,5.31 0,0 190.199996,-204.190004 190.199996,-204.190004 0,0 -18.11,-16.119996 -18.11,-16.119996 0,0 -178.089996,215 -178.089996,215 z" />
        </g>
      </g>
      <g
         style="display: block;"
         transform="matrix(1.0000091791152954,0.00013962762022856623,-0.00013962762022856623,1.0000091791152954,605.4990234375,320.5430908203125)"
         id="g271">
        <g
           opacity="1"
           transform="matrix(1,0,0,1,0,0)"
           id="g269">
          <path
             fill="rgb(0,0,0)"
             d="m -75.364998,121.7 c 0,0 6.949997,4 6.949997,4 0,0 143.779999,-239.4 143.779999,-239.4 0,0 -21.049999,-12 -21.049999,-12 0,0 -129.679997,247.4 -129.679997,247.4 z"
             id="path267"
             inkscape:original-d="m -75.364998,121.7 c 0,0 6.949997,4 6.949997,4 0,0 143.779999,-239.4 143.779999,-239.4 0,0 -21.049999,-12 -21.049999,-12 0,0 -129.679997,247.4 -129.679997,247.4 z" />
        </g>
      </g>
      <g
         style="display: block;"
         transform="matrix(1.0000090599060059,0.000139627605676651,-0.000139627605676651,1.0000090599060059,566.876953125,304.20758056640625)"
         id="g277">
        <g
           opacity="1"
           transform="matrix(1,0,0,1,0,0)"
           id="g275">
          <path
             fill="rgb(0,0,0)"
             d="m -49.330002,133.37 c 0,0 7.610001,2.43 7.610001,2.43 0,0 91.050003,-264.26001 91.050003,-264.26001 0,0 -23.080002,-7.33999 -23.080002,-7.33999 0,0 -75.580002,269.17 -75.580002,269.17 z"
             id="path273"
             inkscape:original-d="m -49.330002,133.37 c 0,0 7.610001,2.43 7.610001,2.43 0,0 91.050003,-264.26001 91.050003,-264.26001 0,0 -23.080002,-7.33999 -23.080002,-7.33999 0,0 -75.580002,269.17 -75.580002,269.17 z" />
        </g>
      </g>
      <g
         style="display: block;"
         transform="matrix(1.000009536743164,0.00013962767843622714,-0.00013962767843622714,1.000009536743164,525.3876953125,296.3565979003906)"
         id="g283">
        <g
           opacity="1"
           transform="matrix(1,0,0,1,0,0)"
           id="g281">
          <path
             fill="rgb(0,0,0)"
             d="m -21.139999,139.125 c 0,0 7.949999,0.78 7.949999,0.78 0,0 34.329999,-277.45 34.329999,-277.45 0,0 -24.099999,-2.36 -24.099999,-2.36 0,0 -18.179999,279.03 -18.179999,279.03 z"
             id="path279"
             inkscape:original-d="m -21.139999,139.125 c 0,0 7.949999,0.78 7.949999,0.78 0,0 34.329999,-277.45 34.329999,-277.45 0,0 -24.099999,-2.36 -24.099999,-2.36 0,0 -18.179999,279.03 -18.179999,279.03 z" />
        </g>
      </g>
      <g
         style="display: block;"
         transform="matrix(1,0.00013962633966002613,-0.00013962633966002613,1,327.0400085449219,499.97601318359375)"
         id="g289">
        <g
           opacity="1"
           transform="matrix(1,0,0,1,0,0)"
           id="g287">
          <path
             fill="rgb(0,0,0)"
             d="m 171.03999,344 c 0,0 0,-688 0,-688 -188.929989,0 -342.07998,154 -342.07998,344 0,190 153.149991,344 342.07998,344 z"
             id="path285"
             inkscape:original-d="m 171.03999,344 c 0,0 0,-688 0,-688 -188.929989,0 -342.07998,154 -342.07998,344 0,190 153.149991,344 342.07998,344 z" />
        </g>
      </g>
    </g>
  </g>
</svg>
