<svg viewBox="0 0 394 114" fill="none" xmlns="http://www.w3.org/2000/svg">
<rect x="1" y="1" width="392" height="112" rx="24" fill="white" stroke="#9AA0A6" stroke-width="0.56"/>
<path d="M45.415 71.0001V45.8721H47.575V69.0921H58.663V71.0001H45.415Z" fill="#303234" fill-opacity="0.9"/>
<path d="M62.8106 47.5641C62.3306 47.5641 61.9706 47.4441 61.7306 47.2041C61.5146 46.9641 61.4066 46.6521 61.4066 46.2681V45.9081C61.4066 45.5241 61.5146 45.2121 61.7306 44.9721C61.9706 44.7321 62.3306 44.6121 62.8106 44.6121C63.2906 44.6121 63.6386 44.7321 63.8546 44.9721C64.0946 45.2121 64.2146 45.5241 64.2146 45.9081V46.2681C64.2146 46.6521 64.0946 46.9641 63.8546 47.2041C63.6386 47.4441 63.2906 47.5641 62.8106 47.5641ZM61.8026 52.5681H63.8546V71.0001H61.8026V52.5681Z" fill="#303234" fill-opacity="0.9"/>
<path d="M74.6965 71.4321C73.0885 71.4321 71.7085 71.1321 70.5565 70.5321C69.4285 69.9321 68.4445 69.0561 67.6045 67.9041L69.1165 66.7161C69.8845 67.7241 70.7245 68.4681 71.6365 68.9481C72.5485 69.4281 73.6165 69.6681 74.8405 69.6681C76.2565 69.6681 77.3485 69.3681 78.1165 68.7681C78.8845 68.1681 79.2685 67.3041 79.2685 66.1761C79.2685 65.1921 78.9685 64.4241 78.3685 63.8721C77.7925 63.2961 76.8325 62.9121 75.4885 62.7201L73.9765 62.4681C73.1365 62.3481 72.3685 62.1681 71.6725 61.9281C70.9765 61.6881 70.3765 61.3641 69.8725 60.9561C69.3925 60.5481 69.0085 60.0561 68.7205 59.4801C68.4565 58.8801 68.3245 58.1601 68.3245 57.3201C68.3245 56.4561 68.4805 55.7001 68.7925 55.0521C69.1285 54.4041 69.5725 53.8641 70.1245 53.4321C70.6765 53.0001 71.3365 52.6761 72.1045 52.4601C72.8725 52.2441 73.7005 52.1361 74.5885 52.1361C76.1245 52.1361 77.3845 52.4001 78.3685 52.9281C79.3525 53.4561 80.1925 54.1401 80.8885 54.9801L79.5205 56.2401C79.0405 55.6641 78.3925 55.1361 77.5765 54.6561C76.7845 54.1521 75.7525 53.9001 74.4805 53.9001C73.1605 53.9001 72.1285 54.1881 71.3845 54.7641C70.6645 55.3401 70.3045 56.1561 70.3045 57.2121C70.3045 58.2921 70.6285 59.0721 71.2765 59.5521C71.9485 60.0321 72.9445 60.3801 74.2645 60.5961L75.7405 60.8121C77.6125 61.1001 78.9925 61.6641 79.8805 62.5041C80.7925 63.3201 81.2485 64.4721 81.2485 65.9601C81.2485 67.6881 80.6605 69.0321 79.4845 69.9921C78.3325 70.9521 76.7365 71.4321 74.6965 71.4321Z" fill="#303234" fill-opacity="0.9"/>
<path d="M88.5802 71.0001C87.8362 71.0001 87.2722 70.7961 86.8882 70.3881C86.5042 69.9801 86.3122 69.4281 86.3122 68.7321V54.3681H83.1082V52.5681H85.1962C85.7002 52.5681 86.0362 52.4721 86.2042 52.2801C86.3962 52.0641 86.4922 51.6921 86.4922 51.1641V47.4201H88.3642V52.5681H92.5402V54.3681H88.3642V69.2001H92.2522V71.0001H88.5802Z" fill="#303234" fill-opacity="0.9"/>
<path d="M102.838 71.4321C101.614 71.4321 100.498 71.2161 99.4901 70.7841C98.5061 70.3521 97.6541 69.7281 96.9341 68.9121C96.2381 68.0721 95.6981 67.0521 95.3141 65.8521C94.9541 64.6521 94.7741 63.2961 94.7741 61.7841C94.7741 60.2721 94.9541 58.9281 95.3141 57.7521C95.6981 56.5521 96.2381 55.5441 96.9341 54.7281C97.6541 53.8881 98.5061 53.2521 99.4901 52.8201C100.474 52.3641 101.578 52.1361 102.802 52.1361C103.978 52.1361 105.046 52.3641 106.006 52.8201C106.966 53.2521 107.782 53.8641 108.454 54.6561C109.126 55.4481 109.642 56.4081 110.002 57.5361C110.386 58.6401 110.578 59.8641 110.578 61.2081V62.1801H96.9341V63.0801C96.9341 64.0401 97.0661 64.9281 97.3301 65.7441C97.6181 66.5361 98.0141 67.2201 98.5181 67.7961C99.0461 68.3721 99.6821 68.8281 100.426 69.1641C101.17 69.4761 102.01 69.6321 102.946 69.6321C105.634 69.6321 107.494 68.3961 108.526 65.9241L110.038 66.9321C109.462 68.3001 108.55 69.3921 107.302 70.2081C106.078 71.0241 104.59 71.4321 102.838 71.4321ZM102.802 53.8641C101.914 53.8641 101.11 54.0321 100.39 54.3681C99.6701 54.6801 99.0461 55.1241 98.5181 55.7001C98.0141 56.2761 97.6181 56.9721 97.3301 57.7881C97.0661 58.5801 96.9341 59.4561 96.9341 60.4161V60.5961H108.346V60.3081C108.346 59.3481 108.214 58.4721 107.95 57.6801C107.686 56.8641 107.302 56.1801 106.798 55.6281C106.318 55.0761 105.73 54.6441 105.034 54.3321C104.362 54.0201 103.618 53.8641 102.802 53.8641Z" fill="#303234" fill-opacity="0.9"/>
<path d="M114.717 71.0001V52.5681H116.769V55.4841H116.877C117.285 54.5241 117.921 53.7321 118.785 53.1081C119.649 52.4601 120.825 52.1361 122.313 52.1361C124.281 52.1361 125.805 52.7481 126.885 53.9721C127.989 55.1721 128.541 56.9001 128.541 59.1561V71.0001H126.489V59.5161C126.489 57.6441 126.081 56.2521 125.265 55.3401C124.473 54.4281 123.309 53.9721 121.773 53.9721C121.125 53.9721 120.501 54.0561 119.901 54.2241C119.301 54.3921 118.761 54.6441 118.281 54.9801C117.825 55.3161 117.453 55.7481 117.165 56.2761C116.901 56.7801 116.769 57.3681 116.769 58.0401V71.0001H114.717Z" fill="#303234" fill-opacity="0.9"/>
<path d="M147.902 71.4321C146.678 71.4321 145.574 71.2161 144.59 70.7841C143.606 70.3521 142.766 69.7281 142.07 68.9121C141.374 68.0721 140.834 67.0521 140.45 65.8521C140.066 64.6521 139.874 63.2961 139.874 61.7841C139.874 60.2721 140.066 58.9281 140.45 57.7521C140.834 56.5521 141.374 55.5441 142.07 54.7281C142.766 53.8881 143.606 53.2521 144.59 52.8201C145.574 52.3641 146.678 52.1361 147.902 52.1361C149.126 52.1361 150.23 52.3641 151.214 52.8201C152.198 53.2521 153.038 53.8881 153.734 54.7281C154.43 55.5441 154.97 56.5521 155.354 57.7521C155.738 58.9281 155.93 60.2721 155.93 61.7841C155.93 63.2961 155.738 64.6521 155.354 65.8521C154.97 67.0521 154.43 68.0721 153.734 68.9121C153.038 69.7281 152.198 70.3521 151.214 70.7841C150.23 71.2161 149.126 71.4321 147.902 71.4321ZM147.902 69.5961C149.702 69.5961 151.118 69.0321 152.15 67.9041C153.206 66.7761 153.734 65.1201 153.734 62.9361V60.6321C153.734 58.4721 153.206 56.8281 152.15 55.7001C151.118 54.5481 149.702 53.9721 147.902 53.9721C146.102 53.9721 144.674 54.5361 143.618 55.6641C142.586 56.7921 142.07 58.4481 142.07 60.6321V62.9361C142.07 65.0961 142.586 66.7521 143.618 67.9041C144.674 69.0321 146.102 69.5961 147.902 69.5961Z" fill="#303234" fill-opacity="0.9"/>
<path d="M160.063 71.0001V52.5681H162.115V55.4841H162.223C162.631 54.5241 163.267 53.7321 164.131 53.1081C164.995 52.4601 166.171 52.1361 167.659 52.1361C169.627 52.1361 171.151 52.7481 172.231 53.9721C173.335 55.1721 173.887 56.9001 173.887 59.1561V71.0001H171.835V59.5161C171.835 57.6441 171.427 56.2521 170.611 55.3401C169.819 54.4281 168.655 53.9721 167.119 53.9721C166.471 53.9721 165.847 54.0561 165.247 54.2241C164.647 54.3921 164.107 54.6441 163.627 54.9801C163.171 55.3161 162.799 55.7481 162.511 56.2761C162.247 56.7801 162.115 57.3681 162.115 58.0401V71.0001H160.063Z" fill="#303234" fill-opacity="0.9"/>
<path fill-rule="evenodd" clip-rule="evenodd" d="M245.742 43.6055C245.742 46.2733 244.888 48.7338 243.456 50.7439C248.346 52.9055 251.766 57.8422 251.766 63.5894C251.766 71.3285 245.568 77.6023 237.923 77.6023H234.637L234.633 77.6025L234.63 77.6028H232.011V78.9595C232.011 80.6457 230.661 82.0127 228.995 82.0127C227.329 82.0127 225.979 80.6457 225.979 78.9595V77.6028H215.605C213.779 77.6028 212.319 76.0167 212.496 74.1312C212.651 72.4877 214.108 71.2806 215.739 71.2806H219.207V71.2778H237.663C241.885 71.2778 245.307 67.8132 245.307 63.5395C245.307 59.9432 242.883 56.921 239.599 56.0534C238.99 55.8924 238.356 55.846 237.727 55.846H231.611C230 55.846 228.561 54.6591 228.398 53.0372C228.212 51.1817 229.626 49.6208 231.41 49.5793V49.5766H231.436C231.438 49.5765 231.441 49.5764 231.444 49.5762C231.448 49.5757 231.453 49.575 231.458 49.5743C231.465 49.5732 231.473 49.5721 231.481 49.5721C231.481 49.5721 233.271 49.5844 233.867 49.5721C237.099 49.5047 239.677 46.7535 239.677 43.4511V43.4391C239.677 40.0505 236.963 37.3035 233.616 37.3035H222.907V37.2924H220.966C219.356 37.2924 218.051 35.9715 218.051 34.3422C218.051 32.7127 219.356 31.3918 220.966 31.3918H222.907V31.3784H225.979V30.0532C225.979 28.367 227.329 27 228.995 27C230.661 27 232.011 28.367 232.011 30.0532V31.3784H233.663C240.334 31.3784 245.742 36.8526 245.742 43.6055ZM272.405 46.2726C272.395 46.2707 272.386 46.2687 272.377 46.267C272.362 46.2649 272.348 46.2615 272.334 46.2581C272.317 46.254 272.3 46.2499 272.282 46.2481C272.261 46.2459 272.228 46.2441 272.204 46.2421C272.189 46.2406 272.174 46.2395 272.158 46.2384L272.148 46.2377C271.45 46.1833 269.827 46.1863 268.98 46.2854L268.98 46.2915C267.39 46.4575 265.637 46.9956 264.429 47.8942C263.901 48.2873 263.423 48.717 262.985 49.1742C262.943 47.5889 261.63 46.3147 260.007 46.3147C258.358 46.3147 257.021 47.6288 257.021 49.2497V74.8307C257.021 75.2372 257.105 75.6243 257.258 75.9762C257.712 77.0362 258.778 77.7805 260.022 77.7805C261.678 77.7805 263.02 76.4606 263.02 74.8328V74.6578V71.906V60.875C263.02 58.2767 263.733 56.1379 265.139 54.5177C266.295 53.1837 267.578 52.4232 269.034 52.1935C269.757 52.1043 270.492 52.1296 270.492 52.1296H271.955C273.611 52.1296 274.954 50.8098 274.954 49.1818C274.954 47.6904 273.86 46.4893 272.405 46.2726ZM338.28 71.5679H348.966C350.571 71.5679 351.872 72.8722 351.872 74.4811C351.872 76.09 350.571 77.3944 348.966 77.3944H332.145C330.54 77.3944 329.24 76.09 329.24 74.4813V74.4811C329.24 74.0053 329.364 73.5628 329.566 73.1661C329.624 73.0295 329.683 72.8925 329.764 72.7624L342.137 52.891C342.35 52.5496 342.105 52.107 341.704 52.107H332.354C330.656 52.107 329.297 50.6451 329.463 48.9076C329.607 47.3928 330.962 46.2805 332.479 46.2805H347.848C349.452 46.2805 350.753 47.5848 350.753 49.1937C350.753 49.3199 350.736 49.4413 350.718 49.5626L350.718 49.5628L350.712 49.607C350.71 49.6227 350.709 49.6385 350.708 49.6542C350.707 49.6675 350.706 49.6807 350.704 49.6939C350.703 49.7022 350.702 49.7104 350.701 49.7186C350.687 49.792 350.667 49.8621 350.646 49.9324L350.646 49.9328L350.631 49.9859C350.601 50.099 350.571 50.211 350.527 50.3211C350.525 50.3262 350.523 50.331 350.52 50.3358C350.517 50.3406 350.515 50.3455 350.513 50.3505C350.453 50.4962 350.389 50.6412 350.303 50.7795L337.846 70.7837C337.634 71.1253 337.878 71.5679 338.28 71.5679ZM228.118 66.712C229.855 66.712 231.263 65.3274 231.263 63.6194C231.263 61.9114 229.855 60.5266 228.118 60.5266H208.324C206.587 60.5266 205.179 61.9114 205.179 63.6194C205.179 65.3274 206.587 66.712 208.324 66.712H228.118ZM219.525 52.8761C219.525 54.5842 218.104 55.9689 216.352 55.9689H202.158C200.405 55.9689 198.984 54.5842 198.984 52.8761C198.984 51.1681 200.405 49.7834 202.158 49.7834H216.352C218.104 49.7834 219.525 51.1681 219.525 52.8761ZM227.763 46.5282C229.516 46.5282 230.937 45.1435 230.937 43.4355C230.937 41.7274 229.516 40.3428 227.763 40.3428H213.569C211.817 40.3428 210.396 41.7274 210.396 43.4355C210.396 45.1435 211.817 46.5282 213.569 46.5282H227.763ZM296.171 64.3359L282.329 64.3378C282.048 64.3378 281.82 64.5673 281.82 64.8502V65.7015C281.82 67.9067 282.514 69.6144 283.943 70.924C285.367 72.2305 287.252 72.8921 289.545 72.8921C290.153 72.8921 290.799 72.8237 291.402 72.7057C292.472 72.4596 293.706 71.9023 294.558 71.2428C294.65 71.1713 294.747 71.1016 294.846 71.0334L294.863 71.0214C294.88 71.01 294.896 70.9987 294.913 70.9875C295.013 70.9207 295.116 70.8567 295.223 70.7978C295.233 70.7924 295.243 70.7875 295.253 70.7826C295.257 70.7805 295.261 70.7784 295.265 70.7763C295.268 70.7748 295.271 70.7734 295.274 70.772C295.371 70.7201 295.472 70.6734 295.575 70.6317L295.6 70.6212C295.612 70.6157 295.625 70.6102 295.638 70.6052C295.752 70.5623 295.869 70.5278 295.99 70.5011C296.008 70.4972 296.026 70.494 296.044 70.4908L296.044 70.4907L296.068 70.4865C296.186 70.4647 296.307 70.4501 296.431 70.4477C296.436 70.4476 296.44 70.4473 296.444 70.4469C296.447 70.4466 296.45 70.4464 296.453 70.4462C296.455 70.4461 296.457 70.446 296.46 70.446C296.461 70.446 296.463 70.4458 296.465 70.4457C296.467 70.4455 296.468 70.4453 296.47 70.4453C297.659 70.4453 298.657 71.2227 299.02 72.2961C299.022 72.302 299.024 72.3077 299.027 72.3133L299.033 72.326C299.038 72.337 299.044 72.3481 299.047 72.36C299.057 72.3902 299.064 72.4203 299.071 72.4504C299.075 72.4678 299.079 72.4853 299.084 72.5027L299.091 72.5296L299.098 72.5575C299.108 72.5919 299.117 72.6261 299.124 72.6616C299.154 72.8158 299.166 72.9682 299.169 73.1191C299.169 73.1229 299.17 73.1267 299.17 73.1304C299.17 73.1345 299.171 73.1385 299.172 73.1425L299.172 73.1427C299.172 73.1473 299.173 73.1519 299.174 73.1566C299.174 73.1594 299.174 73.1622 299.174 73.165C299.174 73.166 299.174 73.1669 299.174 73.1679C299.174 73.1775 299.173 73.1869 299.172 73.1962C299.171 73.2048 299.17 73.2134 299.17 73.2222C299.168 73.3295 299.159 73.4355 299.144 73.5399C299.143 73.5447 299.143 73.5495 299.142 73.5543C299.142 73.5584 299.141 73.5625 299.141 73.5665C299.14 73.5775 299.139 73.5884 299.137 73.5992C299.117 73.7211 299.087 73.8403 299.05 73.9571C299.044 73.976 299.037 73.9945 299.03 74.0129L299.028 74.0188L299.017 74.0499C298.985 74.138 298.95 74.224 298.91 74.308C298.895 74.3401 298.88 74.3721 298.864 74.4032C298.807 74.5112 298.746 74.6163 298.677 74.7159C298.244 75.4242 297.425 76.1054 296.176 76.8281C294.34 77.8923 292.05 78.4316 289.371 78.4316C285.449 78.4316 282.196 77.2338 279.704 74.8707C277.201 72.5002 275.931 69.3511 275.931 65.5097V58.806C275.931 55.4009 277.125 52.4193 279.48 49.9445C281.842 47.4613 284.72 46.2024 288.033 46.2024C291.189 46.2024 293.956 47.377 296.259 49.6938C298.251 51.6984 299.389 54.1696 299.66 57.0495C299.662 57.0582 299.663 57.0656 299.665 57.073L299.665 57.0734C299.666 57.0821 299.668 57.0908 299.669 57.1014C299.815 58.4194 299.663 60.8197 299.663 60.8197C299.663 62.7617 298.1 64.3359 296.171 64.3359ZM283.643 53.2759C282.416 54.5244 281.82 56.0205 281.82 57.8485V58.1329C281.82 58.7593 282.324 59.2672 282.946 59.2678L292.943 59.2769C293.564 59.2776 294.07 58.7753 294.071 58.1494C294.071 58.0309 294.072 57.901 294.072 57.759C294.072 55.9639 293.488 54.7741 292.287 53.4151C291.103 52.0749 289.692 51.4238 287.975 51.4238C286.285 51.4238 284.868 52.0297 283.643 53.2759ZM309.065 64.3378L322.907 64.3359C324.836 64.3359 326.399 62.7617 326.399 60.8197C326.399 60.8197 326.551 58.4194 326.405 57.1014C326.404 57.0908 326.402 57.0821 326.4 57.0734L326.4 57.073C326.4 57.0685 326.399 57.064 326.398 57.0592C326.397 57.0561 326.397 57.0529 326.396 57.0495C326.125 54.1696 324.986 51.6984 322.995 49.6938C320.692 47.377 317.924 46.2024 314.769 46.2024C311.455 46.2024 308.578 47.4613 306.216 49.9445C303.861 52.4193 302.667 55.4009 302.667 58.806V65.5097C302.667 69.3511 303.937 72.5002 306.44 74.8707C308.932 77.2338 312.185 78.4316 316.107 78.4316C318.786 78.4316 321.076 77.8923 322.912 76.8281C324.16 76.1054 324.98 75.4242 325.413 74.7159C325.482 74.6163 325.543 74.5112 325.6 74.4032C325.612 74.3799 325.623 74.3561 325.634 74.3321L325.646 74.308C325.686 74.224 325.721 74.138 325.752 74.0499L325.763 74.0216C325.771 74.0002 325.779 73.979 325.786 73.9571C325.822 73.8403 325.853 73.7211 325.873 73.5992C325.875 73.5887 325.876 73.5781 325.877 73.5675C325.877 73.5615 325.878 73.5556 325.879 73.5497C325.879 73.5464 325.879 73.5432 325.88 73.5399C325.895 73.4355 325.903 73.3295 325.906 73.2222C325.906 73.2134 325.907 73.2048 325.908 73.1962C325.909 73.1869 325.91 73.1775 325.91 73.1679C325.91 73.1618 325.909 73.1558 325.909 73.1499C325.908 73.1476 325.908 73.1454 325.908 73.1431L325.908 73.143C325.906 73.1351 325.905 73.1273 325.905 73.1191C325.902 72.9682 325.89 72.8158 325.859 72.6616C325.853 72.6261 325.843 72.5919 325.834 72.5575C325.829 72.5393 325.824 72.5211 325.819 72.5027C325.815 72.4853 325.811 72.4678 325.807 72.4504C325.8 72.4203 325.793 72.3902 325.783 72.36C325.779 72.3481 325.774 72.337 325.769 72.326C325.764 72.3162 325.759 72.3064 325.756 72.2961C325.393 71.2227 324.395 70.4453 323.206 70.4453C323.202 70.4453 323.199 70.446 323.195 70.446C323.19 70.446 323.185 70.4464 323.18 70.4469C323.176 70.4473 323.171 70.4476 323.167 70.4477C323.043 70.4501 322.922 70.4647 322.804 70.4865L322.779 70.4909C322.761 70.4941 322.743 70.4972 322.725 70.5011C322.605 70.5278 322.488 70.5623 322.374 70.6052C322.366 70.6084 322.358 70.6117 322.35 70.6151C322.345 70.617 322.34 70.619 322.336 70.6211L322.31 70.6317C322.207 70.6734 322.107 70.7201 322.01 70.772C322.003 70.7756 321.996 70.7791 321.989 70.7826C321.979 70.7875 321.969 70.7924 321.959 70.7978C321.852 70.8567 321.749 70.9207 321.649 70.9875C321.635 70.9968 321.621 71.0062 321.607 71.0157C321.599 71.0215 321.59 71.0275 321.582 71.0334C321.483 71.1016 321.386 71.1713 321.294 71.2428C320.442 71.9023 319.208 72.4596 318.138 72.7057C317.535 72.8237 316.889 72.8921 316.281 72.8921C313.987 72.8921 312.103 72.2305 310.679 70.924C309.25 69.6144 308.556 67.9067 308.556 65.7015V64.8502C308.556 64.5673 308.784 64.3378 309.065 64.3378ZM308.556 57.8485C308.556 56.0205 309.153 54.5244 310.379 53.2759C311.604 52.0297 313.021 51.4238 314.711 51.4238C316.428 51.4238 317.839 52.0749 319.023 53.4151C320.224 54.7741 320.808 55.9639 320.808 57.759C320.808 57.901 320.808 58.0309 320.808 58.1494C320.806 58.7753 320.301 59.2776 319.679 59.2769L309.682 59.2678C309.06 59.2672 308.556 58.7593 308.556 58.1329V57.8485Z" fill="url(#paint0_linear)"/>
<defs>
<linearGradient id="paint0_linear" x1="217.93" y1="13.4818" x2="295.517" y2="122.222" gradientUnits="userSpaceOnUse">
<stop stop-color="#00B5F6"/>
<stop offset="0.8801" stop-color="#0071FE"/>
<stop offset="1" stop-color="#0067FF"/>
</linearGradient>
</defs>
</svg>
