<svg viewBox="0 0 688 688" fill="currentColor"><path fill-rule="evenodd" clip-rule="evenodd" d="M342.08 0v687.999C153.15 687.999 0 533.999 0 344 0 154 153.15 0 342.08 0z"/><path d="M356.169 280.26l-7.95-.78L366.399.45l24.1 2.36-34.33 277.45zM347.738 408.62l7.95-.89 40 276.76-24.06 2.71-23.89-278.58zM361.07 406.7l7.58-2.53 96.45 262.38-23 7.68-81.03-267.53zM373.719 402l6.89-4.07 148.67 236.569-20.87 12.3L373.719 402zM385.119 394.83l5.89-5.41 194.41 200.35-17.87 16.39-182.43-211.33zM394.758 385.41l4.66-6.53 231.63 155.42-14.05 19.75-222.24-168.64zM402.25 374.17l3.2-7.35 258.73 103.69-9.67 22.27-252.26-118.61zM407.25 361.62l1.61-7.86 274.54 47.41-4.85 23.83-271.3-63.38zM409.531 348.27l-.06-8 278.339-10.91.19 24.3-278.469-5.39zM408.997 334.77l-1.71-7.77 270-68.78 5.22 23.73-273.51 52.82zM405.698 321.67l-3.3-7.31 249.82-123.61 10 22.12-256.52 108.8zM399.75 309.519l-4.75-6.45 218.75-173.07 14.37 19.56-228.37 159.96zM391.418 298.89l-6-5.31 178.09-215 18.11 16.12-190.2 204.19zM381.059 290.23l-6.95-4 129.68-247.4 21.05 12-143.78 239.4zM369.13 284l-7.61-2.43L437.099 12.4l23.08 7.34L369.13 284z"/></svg>