<svg xmlns="http://www.w3.org/2000/svg" viewBox="0 0 452.09 109" fill="currentColor"><defs></defs><g id="Layer_2" data-name="Layer 2"><g id="Layer_1-2" data-name="Layer 1"><path d="M54.42 0v109a54.5 54.5 0 010-109z" fill-rule="evenodd" /><path class="cls-2" d="M56.5 44.4l-1.26-.12L58.12.07l3.81.38zM55.17 64.74l1.26-.14 6.32 43.84-3.8.43zM57.28 64.43l1.2-.4 15.25 41.57-3.63 1.22zM59.28 63.69l1.09-.64 23.52 37.47-3.3 2zM61.08 62.55l.92-.85 30.77 31.74L89.94 96zM62.61 61.06l.73-1L100 84.65l-2.23 3.13zM63.79 59.28l.51-1.16 40.93 16.42-1.53 3.53zM64.58 57.29l.26-1.24 43.43 7.51-.77 3.77zM64.94 55.18v-1.27l44-1.73L109 56zM64.86 53l-.27-1.24L107.3 40.9l.83 3.76zM64.34 51l-.52-1.16 39.52-19.58 1.58 3.5zM63.4 49l-.76-1 34.61-27.41 2.28 3.1zM62.08 47.35l-.95-.84 28.18-34L92.17 15zM60.44 46l-1.1-.63L79.86 6.15l3.33 1.9zM58.55 45l-1.2-.39L69.31 2 73 3.13zM136.49 65.39c1.28 10.35 10.14 16 22.52 16 11.84 0 20.48-5.65 20.48-14.62 0-8.11-5.76-12.91-15.9-16.64-10.77-4.16-16.21-5.55-16.21-10.46 0-4.37 5-6.72 9.39-6.72 4.9 0 9.6 2.67 10.24 7.57h9.07c-.53-8.75-8.11-15.25-19.53-15.25-9.28 0-18.24 5.33-18.24 14.4 0 8.54 7.25 12.59 15.15 15.26 11.31 4.27 16.86 5.55 16.86 11.63 0 4.27-4.59 7-11.1 7-7.58 0-12.16-3.31-13.55-8.21zM239.72 53.86c0-15.26-10.46-28.59-27-28.59-16 0-27 12.59-27 27.74 0 16.32 11.52 28.38 27.85 28.38 14.19 0 22.51-9.39 24.65-16.75l-8.11-1.07c-2.35 4.8-7.69 9.6-16.54 9.6-11.1 0-18.35-7.14-18.67-17h44.81zm-27-20.38c10.57 0 17.29 7.68 17.82 16.11h-35.63c.32-8.85 7.68-16.11 17.81-16.11zM300.52 53.86c0-15.26-10.45-28.59-27-28.59-16 0-27 12.59-27 27.74 0 16.32 11.53 28.38 27.85 28.38 14.19 0 22.51-9.39 24.65-16.75l-8.11-1.07c-2.35 4.8-7.68 9.6-16.54 9.6-11.1 0-18.35-7.14-18.67-17h44.81zm-27-20.38c10.56 0 17.28 7.68 17.82 16.11h-35.63c.29-8.85 7.68-16.11 17.82-16.11zM333.76 26.33h-11.21v-16h-9.07v16h-7.68V35h7.68v45.32h9.07V35h11.21zM391.28 53.86c0-15.26-10.45-28.59-27-28.59-16 0-27 12.59-27 27.74 0 16.32 11.53 28.38 27.85 28.38 14.19 0 22.52-9.39 24.65-16.75l-8.11-1.07c-2.35 4.8-7.68 9.6-16.54 9.6-11.09 0-18.35-7.14-18.67-17h44.81zm-27-20.38c10.56 0 17.28 7.68 17.82 16.11h-35.63c.32-8.85 7.68-16.11 17.82-16.11zM452.09 53.86c0-15.26-10.46-28.59-27-28.59-16 0-27 12.59-27 27.74 0 16.32 11.52 28.38 27.84 28.38 14.2 0 22.52-9.39 24.65-16.75l-8.11-1.07c-2.34 4.8-7.68 9.6-16.54 9.6-11.09 0-18.35-7.14-18.67-17h44.82zm-27-20.38c10.56 0 17.29 7.68 17.82 16.11h-35.64c.32-8.85 7.73-16.11 17.82-16.11z"/></g></g></svg>