<svg viewBox="0 0 1440 688" fill="currentColor"><path d="M-69 688c189.986 0 344-154.014 344-344S120.986 0-69 0s-344 154.014-344 344 154.014 344 344 344z"/><g fill="rgba(255,255,255,.05)"><path fill-rule="evenodd" clip-rule="evenodd" d="M718.08 0v688C529.15 688 376 534 376 344S529.15 0 718.08 0z"/><path d="M732.171 280.26l-7.95-.78L742.401.45l24.1 2.36-34.33 277.45zM723.74 408.62l7.95-.89 40 276.76-24.06 2.71-23.89-278.58zM737.07 406.7l7.58-2.53 96.45 262.38-23 7.68-81.03-267.53zM749.721 402l6.89-4.07 148.67 236.57-20.87 12.3L749.721 402zM761.119 394.83l5.89-5.41 194.41 200.35-17.87 16.39-182.43-211.33zM770.76 385.41l4.66-6.53 231.63 155.42L993 554.05 770.76 385.41zM778.25 374.17l3.2-7.35 258.73 103.69-9.67 22.27-252.26-118.61zM783.25 361.62l1.61-7.86 274.54 47.41-4.85 23.83-271.3-63.38zM785.531 348.269l-.06-8 278.339-10.91.19 24.3-278.469-5.39zM784.999 334.77l-1.71-7.77 270.001-68.78 5.22 23.73-273.511 52.82zM781.7 321.67l-3.3-7.31 249.82-123.61 10 22.12-256.52 108.8zM775.75 309.52l-4.75-6.45L989.75 130l14.37 19.56-228.37 159.96zM767.42 298.89l-6-5.31 178.09-215 18.11 16.12-190.2 204.19zM757.059 290.23l-6.95-4 129.68-247.4 21.05 12-143.78 239.4zM745.13 284l-7.61-2.43L813.1 12.4l23.08 7.34L745.13 284z"/></g><path d="M1493.11 281.211l-7.61 2.54-96.79-262.75 23-7.69 81.4 267.9zM1480.42 285.89l-6.92 4.11-149.2-236.88 20.94-12.32 135.18 245.09zM1469 293.1l-5.93 5.42L1268 97.91l17.93-16.42L1469 293.1zM1459.3 302.55l-4.66 6.53-232.48-155.61 14.13-19.79 223.01 168.87zM1451.78 313.8l-3.2 7.36-259.68-103.82 9.71-22.34 253.17 118.8zM1446.78 326.37l-1.61 7.87-275.54-47.48 4.87-23.84 272.28 63.45zM1444.48 339.72v8l-279.29 10.96-.19-24.34 279.48 5.38zM1445 353.26l1.73 7.83L1175.77 430l-5.24-23.8L1445 353.26zM1448.33 366.359l3.31 7.32-250.72 123.78-10-22.16 257.41-108.94zM1454.29 378.5l4.77 6.47-219.54 173.3-14.43-19.58 229.2-160.19zM1462.66 389.15l6 5.33-178.74 215.24-18.18-16.15 190.92-204.42zM1473.05 397.82l7 4-130.17 247.73-21.13-12 144.3-239.73zM1485 404.13l7.64 2.43L1416.8 676l-23.16-7.35L1485 404.13z"/></svg>